<?xml version="1.0" encoding="iso-8859-1"?>
<!-- Generator: Adobe Illustrator 19.0.0, SVG Export Plug-In . SVG Version: 6.00 Build 0)  -->
<svg version="1.1" id="Capa_1" xmlns="http://www.w3.org/2000/svg" xmlns:xlink="http://www.w3.org/1999/xlink" x="0px" y="0px"
	 viewBox="0 0 512 512" style="enable-background:new 0 0 512 512;" xml:space="preserve">
<rect x="55.773" y="184.864" transform="matrix(-0.7071 -0.7071 0.7071 -0.7071 258.4706 623.9589)" style="fill:#F6D83E;" width="405.376" height="147.169"/>
<rect x="55.773" y="223.634" transform="matrix(-0.7071 -0.7071 0.7071 -0.7071 258.4706 623.959)" style="opacity:0.05;enable-background:new    ;" width="405.376" height="69.629"/>
<path style="fill:#EC8087;" d="M5.817,109.883L63.1,167.166L167.166,63.101L109.883,5.817c-7.756-7.756-20.332-7.756-28.088,0
	L5.817,81.795C-1.939,89.551-1.939,102.127,5.817,109.883z"/>
<g style="opacity:0.1;">
	<circle cx="34.453" cy="96.71" r="7.496"/>
	<circle cx="79.47" cy="54.713" r="7.496"/>
	<circle cx="76.966" cy="106.63" r="7.496"/>
</g>
<path style="fill:#F2DFA6;" d="M349.748,453.814l131.701,56.356c18.146,7.765,36.486-10.575,28.721-28.721l-56.356-131.701
	L349.748,453.814z"/>
<path style="fill:#394049;" d="M510.17,481.449l-20.03-46.81l-55.5,55.5l46.81,20.03
	C499.595,517.935,517.935,499.595,510.17,481.449z"/>
<rect x="105.235" y="65.435" transform="matrix(-0.7071 -0.7071 0.7071 -0.7071 139.0206 335.6225)" style="fill:#F4AC3B;" width="67.569" height="147.169"/>
<rect x="131.517" y="65.431" transform="matrix(-0.7071 -0.7071 0.7071 -0.7071 139.0171 335.614)" style="opacity:0.1;enable-background:new    ;" width="15" height="147.169"/>
<path style="opacity:0.1;enable-background:new    ;" d="M511.326,484.847c-0.288-1.129-0.671-2.264-1.156-3.398l-20.03-46.81
	l-36.326-84.891L214.946,110.881l-47.78-47.78L109.883,5.817c-7.756-7.756-20.332-7.756-28.088,0l-9.724,9.724
	c7.074-2.663,15.357-1.165,21.049,4.527l57.283,57.283l47.78,47.78l219.623,219.623c12.712,12.712,22.878,27.737,29.951,44.265
	l25.619,59.871l20.03,46.81c0.485,1.134,0.869,2.269,1.157,3.398c1.119,4.391,0.789,8.695-0.604,12.537
	c1.658-0.305,3.258-0.794,4.773-1.462c0.387-0.17,0.767-0.354,1.143-0.546c0.412-0.211,0.817-0.433,1.215-0.669
	c0.586-0.347,1.155-0.719,1.706-1.118c0.205-0.148,0.408-0.297,0.607-0.452c0.717-0.557,1.403-1.153,2.048-1.792
	c0.024-0.024,0.051-0.046,0.076-0.071C510.673,500.379,513.341,492.751,511.326,484.847z"/>
<g>
</g>
<g>
</g>
<g>
</g>
<g>
</g>
<g>
</g>
<g>
</g>
<g>
</g>
<g>
</g>
<g>
</g>
<g>
</g>
<g>
</g>
<g>
</g>
<g>
</g>
<g>
</g>
<g>
</g>
</svg>
